<?xml version="1.0" encoding="UTF-8" standalone="no"?>
<svg
   width="1200pt"
   height="1200pt"
   version="1.1"
   viewBox="0 0 1200 1200"
   id="svg24"
   sodipodi:docname="logo.svg"
   inkscape:version="1.1.2 (0a00cf5339, 2022-02-04)"
   inkscape:export-filename="logo.png"
   inkscape:export-xdpi="61.439999"
   inkscape:export-ydpi="61.439999"
   xmlns:inkscape="http://www.inkscape.org/namespaces/inkscape"
   xmlns:sodipodi="http://sodipodi.sourceforge.net/DTD/sodipodi-0.dtd"
   xmlns="http://www.w3.org/2000/svg"
   xmlns:svg="http://www.w3.org/2000/svg">
  <defs
     id="defs28" />
  <sodipodi:namedview
     id="namedview26"
     pagecolor="#ffffff"
     bordercolor="#666666"
     borderopacity="1.0"
     inkscape:pageshadow="2"
     inkscape:pageopacity="0.0"
     inkscape:pagecheckerboard="0"
     inkscape:document-units="pt"
     showgrid="false"
     inkscape:zoom="0.449375"
     inkscape:cx="708.76217"
     inkscape:cy="637.55216"
     inkscape:window-width="1920"
     inkscape:window-height="1136"
     inkscape:window-x="0"
     inkscape:window-y="27"
     inkscape:window-maximized="1"
     inkscape:current-layer="layer2" />
  <g
     inkscape:groupmode="layer"
     id="layer1"
     inkscape:label="tag">
    <path
       d="m 989.14549,299.42933 a 89.936964,89.837671 0 0 0 89.93701,-89.83766 89.936964,89.837671 0 0 0 -89.93701,-89.83769 89.936964,89.837671 0 0 0 -89.93694,89.83769 89.936964,89.837671 0 0 0 89.93694,89.83766 M 35.214102,573.73369 574.83589,34.707656 c 21.58485,-21.561045 51.56386,-34.7372327 84.54074,-34.7372327 h 419.70587 c 66.5534,0 119.9159,53.3036917 119.9159,119.7835567 v 419.24246 c 0,32.94048 -13.1907,62.88639 -35.3751,84.44738 L 624.60101,1162.47 c -22.18447,21.561 -52.16345,35.336 -85.14034,35.336 -32.97686,0 -62.95591,-13.775 -84.54066,-35.336 L 35.214102,743.22748 C 13.029627,721.66642 -0.1611404,691.72046 -0.1611404,658.78001 c 0,-33.53936 13.7903244,-63.48529 35.3752424,-85.04632 z"
       id="path1025"
       style="fill:#9acd32;fill-opacity:1;stroke-width:59.9247" />
  </g>
  <g
     inkscape:groupmode="layer"
     id="layer2"
     inkscape:label="moth">
    <g
       id="g22"
       style="fill:#3e3e3e;fill-opacity:1"
       transform="matrix(0.53652231,0.53208692,-0.53652231,0.53208692,632.07893,-68.442915)">
      <path
         d="m 536.4,806.4 c 0,-22.801 14.398,-37.199 14.398,-37.199 l 14.398,-2.3984 c 14.398,-2.3984 27.602,-42 27.602,-42 -23.996,7.1992 -151.2,-394.8 -151.2,-394.8 -106.8,152.4 -294,564 -316.8,633.6 -22.801,69.602 -25.199,196.8 -2.3984,207.6 10.801,4.8008 24,2.3984 42,-4.8008 l 15.602,-120 -2.3984,114 c 16.801,-7.1992 36,-15.602 62.398,-24 2.3984,-1.1992 3.6016,-1.1992 6,-2.3984 l 13.199,-129.6 v 122.4 c 20.398,-12 46.801,-31.199 73.199,-52.801 l 16.801,-135.6 v 121.2 c 25.199,-21.602 50.398,-44.398 72,-64.801 l 13.199,-148.8 2.3984,134.4 c 21.602,-20.398 38.398,-37.199 45.602,-44.398 25.199,-25.199 20.398,-97.199 20.398,-97.199 v -99.602 c 0,-12 12,-99.602 12,-99.602 -7.1992,70.801 -2.3984,153.6 0,194.4 9.5977,-4.793 21.598,-14.391 21.598,-27.594 z m -192,67.203 c -2.3984,32.398 -25.199,50.398 -25.199,22.801 0,-20.398 8.3984,-76.801 12,-104.4 1.1992,-9.6016 4.8008,-19.199 10.801,-27.602 l 9.6016,-14.398 c 0,-1.2031 -4.8008,91.195 -7.2031,123.6 z m 87.602,-154.8 c -2.3984,42 -39.602,80.398 -39.602,80.398 0,0 2.3984,-50.398 4.8008,-92.398 2.3984,-42 22.801,-60 22.801,-60 0,0 14.398,30 12,72 z"
         id="path2"
         style="fill:#3e3e3e;fill-opacity:1" />
      <path
         d="m 1075.2,966 c -22.801,-69.602 -210,-481.2 -316.8,-633.6 0,0 -127.2,402 -152.4,394.8 0,0 12,39.602 27.602,42 L 648,771.5984 c 0,0 14.398,14.398 14.398,37.199 0,13.199 12,21.602 21.602,27.602 3.6016,-40.801 7.1992,-123.6 0,-194.4 0,0 12,87.602 12,99.602 v 99.602 c 0,0 -4.8008,72 20.398,97.199 7.1992,7.1992 24,24 45.602,44.398 l 2.3984,-134.4 13.199,148.8 c 21.602,20.398 46.801,43.199 72,64.801 l 0.004,-120 16.801,135.6 c 26.398,21.602 52.801,40.801 73.199,52.801 v -123.6 l 13.199,129.6 c 2.3984,1.1992 4.8008,1.1992 6,2.3984 25.199,8.3984 45.602,18 62.398,24 l -1.1992,-114 15.602,120 c 18,7.1992 31.199,9.6016 42,4.8008 22.797,-9.6016 20.398,-136.8 -2.4023,-207.6 z M 768,722.4 c -2.3984,-42 12,-72 12,-72 0,0 20.398,18 22.801,60 2.3984,42 4.8008,92.398 4.8008,92.398 0,0.004 -37.203,-38.398 -39.602,-80.398 z M 855.602,876 c -2.3984,-32.398 -7.1992,-124.8 -7.1992,-124.8 l 9.6016,14.398 c 6,8.3984 8.3984,18 10.801,27.602 4.8008,27.602 12,84 12,104.4 -0.004,28.801 -22.805,12.004 -25.203,-21.598 z"
         id="path4"
         style="fill:#3e3e3e;fill-opacity:1" />
      <path
         d="m 645.6,819.6 c 0,-20.398 -8.3984,-28.801 -20.398,-30 -10.801,-1.1992 -26.398,-27.602 -26.398,-27.602 v 1.1992 -1.1992 c 0,0 -14.398,26.398 -26.398,27.602 -10.801,1.1992 -20.398,9.6016 -20.398,30 0,20.398 -34.801,44.398 -34.801,44.398 0,0 3.6016,103.2 26.398,140.4 l 9.6016,-19.199 c 0,0 2.3984,40.801 26.398,91.199 l 10.801,25.199 c 1.1992,3.6016 4.8008,6 9.6016,6 3.6016,0 7.1992,-2.3984 9.6016,-6 l 10.801,-25.199 c 24,-50.398 26.398,-91.199 26.398,-91.199 l 9.6016,19.199 c 22.801,-37.199 26.398,-140.4 26.398,-140.4 -0.008,0 -37.207,-25.199 -37.207,-44.398 z"
         id="path6"
         style="fill:#3e3e3e;fill-opacity:1" />
      <path
         d="m 462,290.4 c -2.3984,9.6016 -2.3984,19.199 1.1992,27.602 l 31.199,86.398 c -1.1992,-32.398 -2.3984,-94.797 -2.3984,-102 0,-9.6016 52.801,-64.801 52.801,-64.801 l -7.1992,32.398 c 0,0 -20.398,152.4 -18,199.2 v 8.3984 c 18,51.602 73.199,212.4 79.199,210 6,-2.4 63.602,-160.8 85.199,-218.4 2.3984,-49.199 -18,-198 -18,-198 l -7.1992,-31.195 c 0,0 52.801,55.199 52.801,64.801 0,7.1992 -1.1992,62.398 -2.3984,97.199 14.398,-38.398 31.199,-88.801 28.801,-104.4 -2.3984,-25.199 -60,-76.801 -80.398,-99.602 -20.398,-22.801 -39.602,-34.801 -57.602,-34.801 -18,0 -32.398,4.8008 -57.602,32.398 -25.199,27.602 -55.199,57.602 -69.602,72 -4.8008,7.2031 -8.4023,15.602 -10.801,22.801 z"
         id="path8"
         style="fill:#3e3e3e;fill-opacity:1" />
      <path
         d="m 349.2,154.8 c 56.398,-13.199 134.4,9.6016 177.6,37.199 l 14.398,-14.398 c 0,0 -52.801,-30 -123.6,-40.801 -68.398,-10.801 -171.6,22.801 -223.2,6 -50.398,-16.801 -70.801,-6 -70.801,-6 0,0 37.199,2.3984 54,13.199 18.004,10.801 115.2,18 171.6,4.8008 z"
         id="path10"
         style="fill:#3e3e3e;fill-opacity:1" />
      <path
         d="m 837.6,151.2 c 56.398,13.199 153.6,6 170.4,-6 16.801,-10.801 54,-13.199 54,-13.199 0,0 -20.398,-10.801 -70.801,6 -50.398,16.801 -147.6,-16.801 -214.8,-6 -70.801,10.801 -123.6,40.801 -123.6,40.801 l 14.398,14.398 c 43.203,-26.398 115.2,-49.199 170.41,-36 z"
         id="path12"
         style="fill:#3e3e3e;fill-opacity:1" />
      <path
         d="m 451.2,210 c 0,6 4.8008,44.398 4.8008,44.398 L 487.1998,222 c 0,0 -3.6016,-27.602 -6,-32.398 -2.3984,-3.6016 -6,-6 -12,-4.8008 l -2.3984,-10.801 -13.199,-4.8008 4.8008,21.602 c -6.0039,6 -7.2031,14.398 -7.2031,19.199 z"
         id="path14"
         style="fill:#3e3e3e;fill-opacity:1" />
      <path
         d="m 411.6,42 c 8.3984,14.398 32.398,86.398 32.398,86.398 l 14.398,4.8008 -34.801,-93.602 c -2.3984,-12 10.801,-8.3984 10.801,-8.3984 -16.801,-16.801 -19.199,2.3984 -19.199,2.3984 -25.199,-11.996 -18,14.402 -18,14.402 1.1992,-21.602 14.402,-6 14.402,-6 z"
         id="path16"
         style="fill:#3e3e3e;fill-opacity:1" />
      <path
         d="m 722.4,169.2 -2.3984,10.801 c -6,-1.1992 -9.6016,0 -12,4.8008 -2.3984,4.8008 -6,32.398 -6,32.398 l 31.199,32.398 c 0,0 4.8008,-38.398 4.8008,-44.398 0,-4.8008 -2.3984,-13.199 -7.1992,-19.199 l 4.8008,-21.602 z"
         id="path18"
         style="fill:#3e3e3e;fill-opacity:1" />
      <path
         d="m 727.2,135.6 14.398,-4.8008 c 0,0 24,-70.801 32.398,-86.398 0,0 13.199,-14.398 14.398,6 0,0 7.1992,-26.398 -20.398,-14.398 0,0 -2.3984,-19.199 -19.199,-2.3984 0,0 13.199,-3.6016 10.801,8.3984 z"
         id="path20"
         style="fill:#3e3e3e;fill-opacity:1" />
    </g>
  </g>
</svg>
